<svg xmlns="http://www.w3.org/2000/svg" viewBox="0 0 512 512">
  <defs>
    <linearGradient id="bg" x1="0%" y1="0%" x2="100%" y2="100%">
      <stop offset="0%" stop-color="#6366f1"/>
      <stop offset="100%" stop-color="#a855f7"/>
    </linearGradient>
  </defs>

  <!-- Background -->
  <rect width="512" height="512" rx="108" fill="url(#bg)"/>

  <!-- Table 1 (top-left) -->
  <rect x="56" y="68" width="196" height="156" rx="18" fill="white" fill-opacity="0.95"/>
  <line x1="56" y1="112" x2="252" y2="112" stroke="#6366f1" stroke-opacity="0.15" stroke-width="2"/>
  <rect x="76" y="80" width="84" height="14" rx="7" fill="#6366f1" fill-opacity="0.55"/>
  <rect x="76" y="128" width="112" height="10" rx="5" fill="#6366f1" fill-opacity="0.3"/>
  <rect x="76" y="150" width="80" height="10" rx="5" fill="#6366f1" fill-opacity="0.2"/>
  <rect x="76" y="172" width="136" height="10" rx="5" fill="#6366f1" fill-opacity="0.2"/>
  <rect x="76" y="194" width="60" height="10" rx="5" fill="#6366f1" fill-opacity="0.15"/>

  <!-- Table 2 (bottom-right) -->
  <rect x="260" y="288" width="196" height="156" rx="18" fill="white" fill-opacity="0.95"/>
  <line x1="260" y1="332" x2="456" y2="332" stroke="#6366f1" stroke-opacity="0.15" stroke-width="2"/>
  <rect x="280" y="300" width="84" height="14" rx="7" fill="#6366f1" fill-opacity="0.55"/>
  <rect x="280" y="348" width="112" height="10" rx="5" fill="#6366f1" fill-opacity="0.3"/>
  <rect x="280" y="370" width="80" height="10" rx="5" fill="#6366f1" fill-opacity="0.2"/>
  <rect x="280" y="392" width="136" height="10" rx="5" fill="#6366f1" fill-opacity="0.2"/>
  <rect x="280" y="414" width="60" height="10" rx="5" fill="#6366f1" fill-opacity="0.15"/>

  <!-- Connection line (curved) -->
  <path d="M 248 172 C 290 240, 220 330, 264 370" stroke="white" stroke-width="5" fill="none" stroke-opacity="0.75" stroke-linecap="round"/>
  <circle cx="248" cy="172" r="9" fill="white" fill-opacity="0.9"/>
  <circle cx="264" cy="370" r="9" fill="white" fill-opacity="0.9"/>
</svg>
